<?xml version="1.0" encoding="UTF-8" standalone="no"?>
<!DOCTYPE svg PUBLIC "-//W3C//DTD SVG 1.1//EN" "http://www.w3.org/Graphics/SVG/1.1/DTD/svg11.dtd">
<svg width="100%" height="100%" viewBox="0 0 1182 1182" version="1.1" xmlns="http://www.w3.org/2000/svg" xmlns:xlink="http://www.w3.org/1999/xlink" xml:space="preserve" xmlns:serif="http://www.serif.com/" style="fill-rule:evenodd;clip-rule:evenodd;stroke-linecap:round;stroke-linejoin:round;stroke-miterlimit:1.5;">
    <g transform="matrix(1,0,0,1.461789,-41.431544,-18.271573)">
        <rect x="898.838" y="333.742" width="53.989" height="201.234" style="fill:rgb(130,104,49);stroke:black;stroke-width:19.96px;"/>
    </g>
    <g transform="matrix(1,0,0,1,105.080171,333.113038)">
        <path d="M486.222,112.302C577.647,112.302 651.872,186.528 651.872,277.952C651.872,369.377 577.647,664.469 486.222,664.469C394.797,664.469 320.572,369.377 320.572,277.952C320.572,186.528 394.797,112.302 486.222,112.302Z" style="fill:rgb(116,120,64);stroke:black;stroke-width:25px;"/>
    </g>
    <g transform="matrix(1,0,0,1,107.745269,-43.178582)">
        <path d="M483.696,783.533C560.878,782.748 618.168,827.862 618.168,827.862C618.168,827.862 598.646,899.858 585.19,935.036C564.475,989.19 541.083,1040.761 483.696,1040.761C426.308,1040.761 403.656,989.461 381.924,935.706C368.167,901.676 348.945,825.351 348.945,825.351C348.945,825.351 423.013,784.149 483.696,783.533Z" style="fill:rgb(56,42,34);stroke:black;stroke-width:25px;"/>
    </g>
    <g transform="matrix(0.633941,0,0,1,412.860542,-34.667083)">
        <ellipse cx="291.653" cy="480.082" rx="127.743" ry="99.995" style="fill:rgb(209,190,173);stroke:black;stroke-width:29.86px;"/>
    </g>
    <g transform="matrix(1,0,0,1,-135.327408,6.557357)">
        <path d="M871.716,975.319C923.072,975.319 993.397,1007.464 993.397,1040.761C993.397,1074.058 923.072,1063.257 871.716,1063.257C820.36,1063.257 801.162,1064.855 801.162,1031.558C801.162,998.261 820.36,975.319 871.716,975.319Z" style="fill:rgb(56,42,34);stroke:black;stroke-width:25px;"/>
    </g>
    <g transform="matrix(-1,0,0,1,1317.931333,6.557357)">
        <path d="M871.716,975.319C923.072,975.319 993.397,1007.464 993.397,1040.761C993.397,1074.058 923.072,1063.257 871.716,1063.257C820.36,1063.257 801.162,1064.855 801.162,1031.558C801.162,998.261 820.36,975.319 871.716,975.319Z" style="fill:rgb(56,42,34);stroke:black;stroke-width:25px;"/>
    </g>
    <g transform="matrix(1,0,0,1,105.080171,39.850967)">
        <circle cx="486.222" cy="277.952" r="165.65" style="fill:rgb(209,190,173);stroke:black;stroke-width:25px;"/>
    </g>
    <g transform="matrix(1,0,0,1,107.606307,-43.178582)">
        <g transform="matrix(1.433333,0,0,1.433333,-328.527179,-140.027035)">
            <circle cx="528.363" cy="349.541" r="24.541"/>
        </g>
        <g transform="matrix(1.433333,0,0,1.433333,-205.823408,-140.027035)">
            <circle cx="528.363" cy="349.541" r="24.541"/>
        </g>
    </g>
    <g transform="matrix(1,0,0,1,31.566091,-167.518675)">
        <circle cx="852.835" cy="830.651" r="65.973" style="fill:rgb(209,190,173);stroke:black;stroke-width:25px;"/>
    </g>
    <g transform="matrix(1,0,0,1,-453.524529,-87.155465)">
        <circle cx="852.835" cy="830.651" r="65.973" style="fill:rgb(209,190,173);stroke:black;stroke-width:25px;"/>
    </g>
    <g transform="matrix(1,0,0,0.217778,90.018767,314.25147)">
        <ellipse cx="507.732" cy="485.855" rx="43.764" ry="23.559" style="fill:none;stroke:black;stroke-width:34.55px;"/>
    </g>
    <g transform="matrix(1,0,0,1,323.564214,143.576038)">
        <path d="M140.293,133.012C144.335,139.519 146.67,147.195 146.67,155.413C146.67,178.89 127.61,197.95 104.133,197.95C80.656,197.95 61.596,178.89 61.596,155.413C61.596,139.922 69.895,126.354 82.285,118.916C78.242,112.408 75.907,104.732 75.907,96.515C75.907,78.893 86.647,63.759 101.932,57.307C101.408,54.642 101.133,51.888 101.133,49.07C101.133,25.593 120.194,6.533 143.67,6.533C147.441,6.533 151.097,7.024 154.579,7.947C156.359,-13.898 174.674,-31.096 196.975,-31.096C211.122,-31.096 223.666,-24.175 231.401,-13.536C238.873,-25.78 252.358,-33.96 267.738,-33.96C285.775,-33.96 301.206,-22.709 307.388,-6.847C314.347,-11.813 322.863,-14.736 332.056,-14.736C350.497,-14.736 366.212,-2.976 372.106,13.447C378.789,9.075 386.775,6.533 395.349,6.533C418.826,6.533 437.886,25.593 437.886,49.07C437.886,53.117 437.32,57.032 436.262,60.742C448.006,68.316 455.788,81.514 455.788,96.515C455.788,103.181 454.252,109.49 451.514,115.109C468.316,120.795 480.424,136.701 480.424,155.413C480.424,178.89 461.363,197.95 437.886,197.95C414.41,197.95 395.349,178.89 395.349,155.413C395.349,148.747 396.886,142.437 399.624,136.819C386.44,132.357 376.147,121.604 372.324,108.14C366.479,111.166 359.844,112.875 352.812,112.875C342.183,112.875 332.459,108.968 324.999,102.513C317.54,108.968 307.816,112.875 297.187,112.875C286.064,112.875 275.932,108.597 268.349,101.597C260.766,108.597 250.635,112.875 239.512,112.875C227.333,112.875 216.343,107.746 208.586,99.532C200.829,107.746 189.838,112.875 177.66,112.875C171.053,112.875 164.796,111.366 159.216,108.674C156.152,118.95 149.305,127.602 140.293,133.012Z" style="fill:rgb(130,104,49);stroke:black;stroke-width:25px;"/>
    </g>
    <g transform="matrix(1,0,0,1,-52.194478,40.154182)">
        <rect x="837.498" y="464.772" width="198.195" height="57.589" style="fill:rgb(90,90,90);stroke:black;stroke-width:25px;"/>
    </g>
</svg>
