<?xml version="1.0" encoding="UTF-8" standalone="no"?>
<!DOCTYPE svg PUBLIC "-//W3C//DTD SVG 1.1//EN" "http://www.w3.org/Graphics/SVG/1.1/DTD/svg11.dtd">
<svg width="100%" height="100%" viewBox="0 0 1182 1182" version="1.1" xmlns="http://www.w3.org/2000/svg" xmlns:xlink="http://www.w3.org/1999/xlink" xml:space="preserve" xmlns:serif="http://www.serif.com/" style="fill-rule:evenodd;clip-rule:evenodd;stroke-linecap:round;stroke-linejoin:round;stroke-miterlimit:1.5;">
    <g transform="matrix(0.429503,0,0,0.429503,789.402574,207.111368)">
        <g transform="matrix(1.282138,0,0,0.490839,-140.193323,461.328288)">
            <path d="M619.32,514.635L619.32,1072.422L248.527,1072.422L248.527,514.635L433.923,36.442L619.32,514.635Z" style="fill:rgb(92,73,39);stroke:black;stroke-width:59.96px;"/>
        </g>
        <g transform="matrix(1.282138,0,0,0.506059,-140.193323,171.222466)">
            <path d="M433.923,514.635L650.391,1072.422L577.891,1072.422L433.923,694.248L289.956,1072.422L217.456,1072.422L433.923,514.635Z" style="fill:rgb(173,146,50);stroke:black;stroke-width:59.72px;"/>
        </g>
        <g transform="matrix(1.327929,0,0,1.327929,-52.586911,-251.612987)">
            <rect x="389.62" y="796.948" width="66.487" height="66.487" style="stroke:black;stroke-width:43.83px;"/>
        </g>
        <g transform="matrix(1.327929,0,0,2.655858,-261.766192,-1309.903944)">
            <rect x="389.62" y="796.948" width="66.487" height="66.487" style="fill:rgb(91,53,24);stroke:black;stroke-width:27.72px;"/>
        </g>
    </g>
    <g transform="matrix(0.429503,0,0,0.429503,230.783796,207.111368)">
        <g transform="matrix(1.282138,0,0,0.490839,-140.193323,461.328288)">
            <path d="M619.32,514.635L619.32,1072.422L248.527,1072.422L248.527,514.635L433.923,36.442L619.32,514.635Z" style="fill:rgb(92,73,39);stroke:black;stroke-width:59.96px;"/>
        </g>
        <g transform="matrix(1.282138,0,0,0.506059,-140.193323,171.222466)">
            <path d="M433.923,514.635L650.391,1072.422L577.891,1072.422L433.923,694.248L289.956,1072.422L217.456,1072.422L433.923,514.635Z" style="fill:rgb(173,146,50);stroke:black;stroke-width:59.72px;"/>
        </g>
        <g transform="matrix(1.327929,0,0,1.327929,-52.586911,-251.612987)">
            <rect x="389.62" y="796.948" width="66.487" height="66.487" style="stroke:black;stroke-width:43.83px;"/>
        </g>
        <g transform="matrix(1.327929,0,0,2.655858,-261.766192,-1309.903944)">
            <rect x="389.62" y="796.948" width="66.487" height="66.487" style="fill:rgb(91,53,24);stroke:black;stroke-width:27.72px;"/>
        </g>
    </g>
    <g transform="matrix(0.5,0,0,0.5,610.969291,352.477095)">
        <g transform="matrix(1.282138,0,0,0.490839,-140.193323,461.328288)">
            <path d="M619.32,514.635L619.32,1072.422L248.527,1072.422L248.527,514.635L433.923,36.442L619.32,514.635Z" style="fill:rgb(92,73,39);stroke:black;stroke-width:51.51px;"/>
        </g>
        <g transform="matrix(1.282138,0,0,0.506059,-140.193323,171.222466)">
            <path d="M433.923,514.635L650.391,1072.422L577.891,1072.422L433.923,694.248L289.956,1072.422L217.456,1072.422L433.923,514.635Z" style="fill:rgb(173,146,50);stroke:black;stroke-width:51.3px;"/>
        </g>
        <g transform="matrix(1.327929,0,0,1.327929,-52.586911,-251.612987)">
            <rect x="389.62" y="796.948" width="66.487" height="66.487" style="stroke:black;stroke-width:37.65px;"/>
        </g>
        <g transform="matrix(1.327929,0,0,2.655858,-261.766192,-1309.903944)">
            <rect x="389.62" y="796.948" width="66.487" height="66.487" style="fill:rgb(91,53,24);stroke:black;stroke-width:23.81px;"/>
        </g>
    </g>
    <g transform="matrix(1.336761,0,0,1.336761,-133.154484,-345.063142)">
        <g transform="matrix(1.282138,0,0,0.490839,-148.900631,452.127201)">
            <path d="M617.005,-62.786L617.005,1072.422L248.527,1072.422L248.527,517.847L434.073,517.847L434.073,-62.786L472.691,-62.786L472.691,36.442L506.078,36.442L506.078,-62.786L545.187,-62.786L545.187,36.442L578.519,36.442L578.519,-62.786L617.005,-62.786Z" style="fill:rgb(82,82,82);stroke:black;stroke-width:19.26px;"/>
        </g>
        <g transform="matrix(0.663965,0,0,0.663965,125.199134,296.629638)">
            <rect x="389.62" y="796.948" width="66.487" height="66.487" style="stroke:black;stroke-width:28.17px;"/>
        </g>
        <g transform="matrix(0.663965,0,0,0.663965,264.364381,296.629638)">
            <rect x="389.62" y="796.948" width="66.487" height="66.487" style="stroke:black;stroke-width:28.17px;"/>
        </g>
        <g transform="matrix(0.325503,0,0,1.756271,385.414706,-869.492918)">
            <rect x="389.62" y="796.948" width="66.487" height="66.487" style="stroke:black;stroke-width:14.81px;"/>
        </g>
        <g transform="matrix(1.327929,0,0,2.655858,-296.245748,-1314.648087)">
            <rect x="389.62" y="796.948" width="66.487" height="66.487" style="fill:rgb(91,53,24);stroke:black;stroke-width:8.91px;"/>
        </g>
    </g>
</svg>
