<?xml version="1.0" encoding="UTF-8" standalone="no"?>
<!DOCTYPE svg PUBLIC "-//W3C//DTD SVG 1.1//EN" "http://www.w3.org/Graphics/SVG/1.1/DTD/svg11.dtd">
<svg width="100%" height="100%" viewBox="0 0 1182 1182" version="1.1" xmlns="http://www.w3.org/2000/svg" xmlns:xlink="http://www.w3.org/1999/xlink" xml:space="preserve" xmlns:serif="http://www.serif.com/" style="fill-rule:evenodd;clip-rule:evenodd;stroke-linejoin:round;stroke-miterlimit:2;">
    <g transform="matrix(0.94924,0,0,0.94924,-23.457073,-17.215312)">
        <circle cx="646.842" cy="640.266" r="622.131" style="fill:rgb(174,205,142);"/>
    </g>
    <g transform="matrix(0.906736,0,0,1,87.784141,12.996449)">
        <rect x="453.437" y="469.117" width="202.086" height="493.173" style="fill:rgb(117,82,48);"/>
        <path d="M655.523,469.117L655.523,962.29L453.437,962.29L453.437,469.117L655.523,469.117ZM618.761,502.45L490.199,502.45L490.199,928.957L618.761,928.957L618.761,502.45Z"/>
    </g>
    <g transform="matrix(1,0,0,1,68.059979,80.16682)">
        <path d="M495.999,515.289C466.562,541.887 427.559,558.092 384.801,558.092C293.204,558.092 218.839,483.727 218.839,392.13C218.839,334.176 248.609,283.119 293.679,253.433C300.964,217.004 333.154,189.521 371.712,189.521C374.951,189.521 378.145,189.715 381.283,190.092C411.651,150.898 459.172,125.649 512.544,125.649C554.34,125.649 592.548,141.133 621.74,166.672C633.015,160.544 645.933,157.061 659.658,157.061C703.578,157.061 739.236,192.719 739.236,236.639C739.236,239.774 739.054,242.867 738.701,245.908C790.74,273.934 826.143,328.93 826.143,392.13C826.143,483.727 751.778,558.092 660.182,558.092C628.513,558.092 598.903,549.202 573.715,533.784C566.446,535.974 558.741,537.15 550.762,537.15C529.552,537.15 510.27,528.835 495.999,515.289Z" style="fill:rgb(96,155,10);"/>
        <path d="M495.999,515.289C466.562,541.887 427.559,558.092 384.801,558.092C293.204,558.092 218.839,483.727 218.839,392.13C218.839,334.176 248.609,283.119 293.679,253.433C300.964,217.004 333.154,189.521 371.712,189.521C374.951,189.521 378.145,189.715 381.283,190.092C411.651,150.898 459.172,125.649 512.544,125.649C554.34,125.649 592.548,141.133 621.74,166.672C633.015,160.544 645.933,157.061 659.658,157.061C703.578,157.061 739.236,192.719 739.236,236.639C739.236,239.774 739.054,242.867 738.701,245.908C790.74,273.934 826.143,328.93 826.143,392.13C826.143,483.727 751.778,558.092 660.182,558.092C628.513,558.092 598.903,549.202 573.715,533.784C566.446,535.974 558.741,537.15 550.762,537.15C529.552,537.15 510.27,528.835 495.999,515.289ZM518.947,491.112C527.238,498.982 538.44,503.817 550.762,503.817C555.399,503.817 559.878,503.139 564.103,501.867C573.194,499.129 583.02,500.398 591.118,505.354C611.236,517.669 634.887,524.758 660.182,524.758C733.381,524.758 792.81,465.33 792.81,392.13C792.81,341.611 764.494,297.659 722.896,275.256C710.872,268.781 704.014,255.626 705.59,242.06C705.797,240.282 705.903,238.473 705.903,236.639C705.903,211.116 685.181,190.395 659.658,190.395C651.696,190.395 644.199,192.404 637.658,195.959C625.401,202.621 610.291,200.945 599.791,191.76C576.467,171.354 545.939,158.983 512.544,158.983C469.883,158.983 431.906,179.179 407.632,210.508C400.455,219.77 388.942,224.584 377.308,223.187C375.474,222.967 373.606,222.854 371.712,222.854C349.311,222.854 330.597,238.805 326.365,259.969C324.619,268.701 319.451,276.372 312.015,281.27C275.988,305 252.172,345.803 252.172,392.13C252.172,465.33 311.601,524.758 384.801,524.758C418.966,524.758 450.13,511.809 473.651,490.556C486.576,478.878 506.313,479.12 518.947,491.112Z"/>
    </g>
</svg>
