<?xml version="1.0" encoding="UTF-8" standalone="no"?>
<!DOCTYPE svg PUBLIC "-//W3C//DTD SVG 1.1//EN" "http://www.w3.org/Graphics/SVG/1.1/DTD/svg11.dtd">
<svg width="100%" height="100%" viewBox="0 0 1182 1182" version="1.1" xmlns="http://www.w3.org/2000/svg" xmlns:xlink="http://www.w3.org/1999/xlink" xml:space="preserve" xmlns:serif="http://www.serif.com/" style="fill-rule:evenodd;clip-rule:evenodd;stroke-linecap:round;stroke-linejoin:round;stroke-miterlimit:1.5;">
    <g transform="matrix(-0.573021,0.246493,0.26374,0.807949,702.072426,4.841274)">
        <path d="M1021.354,513.399C1144.905,624.433 825.162,549.517 823.388,720.151C821.127,937.632 788.681,1004.454 654.697,1037.748C516.961,1071.975 654.742,940.442 635.109,628.411C621.433,411.046 902.092,406.219 1021.354,513.399Z" style="fill:rgb(84,184,0);stroke:black;stroke-width:42.9px;"/>
    </g>
    <g transform="matrix(0.94924,0,0,0.94924,-23.457073,-17.215312)">
        <circle cx="646.842" cy="640.266" r="622.131" style="fill:rgb(174,205,142);"/>
    </g>
    <g transform="matrix(0.529109,0.310018,-0.348694,0.784232,601.055315,2.2168)">
        <path d="M1012.011,583.58C1080.945,696.8 863.457,527.428 818.957,694.177C762.799,904.607 747.583,939.901 645.132,1015.814C538.628,1094.729 671.057,959.09 651.425,647.059C637.748,429.694 933.118,454.005 1012.011,583.58Z" style="fill:rgb(84,184,0);stroke:black;stroke-width:42.51px;"/>
    </g>
    <g transform="matrix(0.825613,0,0,1,25.874596,44.619489)">
        <path d="M654.697,75.095C874.443,75.095 894.869,425.338 894.869,643.132C894.869,860.927 787.252,1008.299 654.697,1008.299C522.142,1008.299 414.524,860.927 414.524,643.132C414.524,425.338 434.951,75.095 654.697,75.095Z" style="fill:rgb(225,255,30);stroke:black;stroke-width:36.35px;"/>
    </g>
    <g transform="matrix(1.378761,0,0,1.378761,-366.781628,78.240482)">
        <circle cx="629.779" cy="318.083" r="26.997" style="fill:rgb(218,171,0);"/>
    </g>
    <g transform="matrix(1.378761,0,0,1.378761,-259.240912,197.245591)">
        <circle cx="629.779" cy="318.083" r="26.997" style="fill:rgb(218,171,0);"/>
    </g>
    <g transform="matrix(1.378761,0,0,1.378761,-312.903404,388.833515)">
        <circle cx="629.779" cy="318.083" r="26.997" style="fill:rgb(218,171,0);"/>
    </g>
    <g transform="matrix(1.378761,0,0,1.378761,-264.692009,-40.864074)">
        <circle cx="629.779" cy="318.083" r="26.997" style="fill:rgb(218,171,0);"/>
    </g>
    <g transform="matrix(1.378761,0,0,1.378761,-374.102924,-129.31309)">
        <circle cx="629.779" cy="318.083" r="26.997" style="fill:rgb(218,171,0);"/>
    </g>
    <g transform="matrix(1.378761,0,0,1.378761,-228.406688,-203.757255)">
        <circle cx="629.779" cy="318.083" r="26.997" style="fill:rgb(218,171,0);"/>
    </g>
    <g transform="matrix(0.998938,0.0529,-0.046083,1.146724,16.803551,-161.312125)">
        <path d="M1012.011,583.58C1080.945,696.8 863.457,527.428 818.957,694.177C762.799,904.607 747.583,939.901 645.132,1015.814C538.628,1094.729 671.057,959.09 651.425,647.059C637.748,429.694 933.118,454.005 1012.011,583.58Z" style="fill:rgb(84,184,0);stroke:black;stroke-width:30.77px;"/>
    </g>
    <g transform="matrix(-0.811646,0.073311,0.078441,1.144406,976.92176,-177.490577)">
        <path d="M1021.354,513.399C1144.905,624.433 825.162,549.517 823.388,720.151C821.127,937.632 788.681,1004.454 654.697,1037.748C631.416,1043.534 593.489,1044.153 593.489,1044.153C593.489,1044.153 651.424,887.7 635.109,628.411C621.433,411.046 902.092,406.219 1021.354,513.399Z" style="fill:rgb(84,184,0);stroke:black;stroke-width:33.16px;"/>
    </g>
</svg>
