<?xml version="1.0" encoding="UTF-8" standalone="no"?>
<!DOCTYPE svg PUBLIC "-//W3C//DTD SVG 1.1//EN" "http://www.w3.org/Graphics/SVG/1.1/DTD/svg11.dtd">
<svg width="100%" height="100%" viewBox="0 0 1182 1182" version="1.1" xmlns="http://www.w3.org/2000/svg" xmlns:xlink="http://www.w3.org/1999/xlink" xml:space="preserve" xmlns:serif="http://www.serif.com/" style="fill-rule:evenodd;clip-rule:evenodd;stroke-linecap:round;stroke-linejoin:round;stroke-miterlimit:1.5;">
    <g transform="matrix(0.94924,0,0,0.94924,-23.457073,-17.215312)">
        <circle cx="646.842" cy="640.266" r="622.131" style="fill:rgb(173,229,226);"/>
    </g>
    <g transform="matrix(1.490505,0,0,0.808156,-372.081338,89.708062)">
        <path d="M781.366,687.101C736.994,743.309 688.738,851.554 611.637,851.554C544.171,851.554 419.976,798.946 384.064,753.398C364.715,728.856 448.219,719.906 442.186,714.897C415.095,692.406 355.853,661.959 355.853,632.096C355.853,513.808 433.102,436.59 543.508,420.375C551.277,419.234 555.189,348.139 605.949,303.386C680.139,237.976 734.985,325.488 725.241,332.142C690.156,356.105 694.409,456.581 709.574,480.554C734.896,520.584 777.74,547.89 789.262,562.486C816.683,506.277 858.173,389.883 905.821,389.883C988.433,389.883 874.299,498.415 874.299,632.096C874.299,765.777 988.433,874.309 905.821,874.309C858.173,874.309 808.787,743.309 781.366,687.101Z" style="fill:rgb(21,97,255);stroke:black;stroke-width:27.8px;"/>
    </g>
    <g transform="matrix(1.079797,-0.312025,-0.304065,-1.05225,380.477497,1016.229695)">
        <path d="M293.11,152.946C274.125,203.302 341.246,216.658 306.853,253.727C279.368,283.351 159.56,294.491 133.432,268.124C100.76,235.154 153.721,172.941 185.131,133.313C228.323,78.821 355.781,-13.277 293.11,152.946Z" style="fill:rgb(21,97,255);stroke:black;stroke-width:30.04px;"/>
    </g>
    <g transform="matrix(2.050528,0,0,2.050528,-468.313638,-564.177492)">
        <circle cx="404.303" cy="540.574" r="22.774"/>
    </g>
</svg>
