<?xml version="1.0" encoding="UTF-8" standalone="no"?>
<!DOCTYPE svg PUBLIC "-//W3C//DTD SVG 1.1//EN" "http://www.w3.org/Graphics/SVG/1.1/DTD/svg11.dtd">
<svg width="100%" height="100%" viewBox="0 0 1182 1182" version="1.1" xmlns="http://www.w3.org/2000/svg" xmlns:xlink="http://www.w3.org/1999/xlink" xml:space="preserve" xmlns:serif="http://www.serif.com/" style="fill-rule:evenodd;clip-rule:evenodd;stroke-linecap:round;stroke-linejoin:round;stroke-miterlimit:1.5;">
    <g transform="matrix(0.94924,0,0,0.94924,-23.457073,-17.215312)">
        <circle cx="646.842" cy="640.266" r="622.131" style="fill:rgb(191,191,191);"/>
    </g>
    <g transform="matrix(1,0,0,1,-67.085039,-136.764051)">
        <path d="M733.237,943.149C687.313,979.998 608.171,984.227 518.316,984.227C376.522,984.227 261.404,973.695 261.404,841.072C261.404,768.04 296.313,702.573 351.362,658.487C358.81,553.493 450.811,470.403 563.052,470.403C609.28,470.403 652.075,484.498 686.943,508.413C712.264,484.892 746.795,470.403 784.833,470.403C858.134,470.403 918.409,524.207 924.86,592.766C1001.932,634.266 1053.869,712.09 1053.869,801.171C1053.869,933.794 938.75,944.326 796.957,944.326C774.965,944.326 753.615,944.072 733.237,943.149Z" style="fill:rgb(92,92,92);stroke:black;stroke-width:33.33px;"/>
    </g>
    <g transform="matrix(0.552141,-0.345936,0.345936,0.552141,56.197777,460.247197)">
        <path d="M1021.02,169.949L1093.794,393.927L1329.298,393.927L1138.772,532.353L1211.546,756.33L1021.02,617.905L830.493,756.33L903.267,532.353L712.741,393.927L948.245,393.927L1021.02,169.949Z" style="fill:rgb(255,228,110);stroke:black;stroke-width:51.16px;"/>
    </g>
    <g transform="matrix(1.157867,0,0,1.157867,-83.066147,-117.425985)">
        <circle cx="434.426" cy="530.807" r="40.901" style="fill:rgb(138,138,138);"/>
    </g>
    <g transform="matrix(1.157867,0,0,1.157867,-151.126027,71.047526)">
        <circle cx="434.426" cy="530.807" r="40.901" style="fill:rgb(138,138,138);"/>
    </g>
    <g transform="matrix(1.157867,0,0,1.157867,87.543212,45.55246)">
        <circle cx="434.426" cy="530.807" r="40.901" style="fill:rgb(138,138,138);"/>
    </g>
    <g transform="matrix(1.157867,0,0,1.157867,353.913254,71.047526)">
        <circle cx="434.426" cy="530.807" r="40.901" style="fill:rgb(138,138,138);"/>
    </g>
</svg>
