<?xml version="1.0" encoding="UTF-8" standalone="no"?>
<!DOCTYPE svg PUBLIC "-//W3C//DTD SVG 1.1//EN" "http://www.w3.org/Graphics/SVG/1.1/DTD/svg11.dtd">
<svg width="100%" height="100%" viewBox="0 0 1182 1182" version="1.1" xmlns="http://www.w3.org/2000/svg" xmlns:xlink="http://www.w3.org/1999/xlink" xml:space="preserve" xmlns:serif="http://www.serif.com/" style="fill-rule:evenodd;clip-rule:evenodd;stroke-linecap:round;stroke-linejoin:round;stroke-miterlimit:1.5;">
    <g transform="matrix(0.352761,0.935713,-0.935713,0.352761,907.901744,-504.253483)">
        <path d="M1005.587,105.57C1030.316,105.57 1069.365,235.426 1069.365,305.093C1069.365,355.809 1053.164,358.01 1029.304,351.806C1020.388,349.488 1041.769,445.908 1006.97,446.739C967.201,447.689 990.499,348.17 981.221,350.667C960.319,356.291 941.81,353.342 941.81,305.093C941.81,235.426 980.858,105.57 1005.587,105.57Z" style="fill:rgb(123,123,123);stroke:black;stroke-width:25px;"/>
    </g>
    <g transform="matrix(0.878763,0.477259,-0.477259,0.878763,211.121592,-152.01092)">
        <path d="M538.75,-25.92C560.189,-25.92 618.557,44.781 602.462,109.835C591.601,153.734 566.733,188.075 545.294,188.075C523.855,188.075 517.609,166.88 540.479,92.202C557.094,37.953 517.311,-25.92 538.75,-25.92Z" style="fill:white;stroke:black;stroke-width:25px;"/>
    </g>
    <g transform="matrix(-0.878763,0.477259,0.477259,0.878763,746.970254,-152.01092)">
        <path d="M538.75,-25.92C560.189,-25.92 618.557,44.781 602.462,109.835C591.601,153.734 566.733,188.075 545.294,188.075C523.855,188.075 517.609,166.88 540.479,92.202C557.094,37.953 517.311,-25.92 538.75,-25.92Z" style="fill:white;stroke:black;stroke-width:25px;"/>
    </g>
    <g transform="matrix(1,0,0,1,-2.526137,376.29162)">
        <path d="M486.222,112.302C577.647,112.302 651.872,186.528 651.872,277.952C651.872,369.377 577.647,664.469 486.222,664.469C394.797,664.469 320.572,369.377 320.572,277.952C320.572,186.528 394.797,112.302 486.222,112.302Z" style="fill:rgb(92,92,92);stroke:black;stroke-width:25px;"/>
    </g>
    <g transform="matrix(0.633941,0,0,1,305.254235,8.511499)">
        <ellipse cx="291.653" cy="480.082" rx="127.743" ry="99.995" style="fill:rgb(209,190,173);stroke:black;stroke-width:29.86px;"/>
    </g>
    <g transform="matrix(1,0,0,1,-242.933715,49.735939)">
        <path d="M871.716,975.319C923.072,975.319 993.397,1007.464 993.397,1040.761C993.397,1074.058 923.072,1063.257 871.716,1063.257C820.36,1063.257 801.162,1064.855 801.162,1031.558C801.162,998.261 820.36,975.319 871.716,975.319Z" style="fill:rgb(45,45,45);stroke:black;stroke-width:25px;"/>
    </g>
    <g transform="matrix(-1,0,0,1,1210.325026,49.735939)">
        <path d="M871.716,975.319C923.072,975.319 993.397,1007.464 993.397,1040.761C993.397,1074.058 923.072,1063.257 871.716,1063.257C820.36,1063.257 801.162,1064.855 801.162,1031.558C801.162,998.261 820.36,975.319 871.716,975.319Z" style="fill:rgb(45,45,45);stroke:black;stroke-width:25px;"/>
    </g>
    <g transform="matrix(1,0,0,1,-2.526137,83.029549)">
        <circle cx="486.222" cy="277.952" r="165.65" style="fill:rgb(209,190,173);stroke:black;stroke-width:25px;"/>
    </g>
    <g transform="matrix(1,0,0,1,-109.291205,104.707218)">
        <path d="M592.987,-3.272C773.226,-3.272 789.297,158.916 789.297,224.377C789.297,289.839 730.688,185.925 592.987,185.925C455.285,185.925 396.676,289.839 396.676,224.377C396.676,158.916 412.748,-3.272 592.987,-3.272Z" style="fill:rgb(92,92,92);stroke:black;stroke-width:25px;"/>
    </g>
    <g>
        <g transform="matrix(1.433333,0,0,1.433333,-328.527179,-140.027035)">
            <circle cx="528.363" cy="349.541" r="24.541"/>
        </g>
        <g transform="matrix(1.433333,0,0,1.433333,-205.823408,-140.027035)">
            <circle cx="528.363" cy="349.541" r="24.541"/>
        </g>
    </g>
    <g transform="matrix(0.348154,0.937437,-1.009433,0.374893,885.913948,-413.651058)">
        <path d="M905.636,272.781C919.773,280.417 935.06,280.301 951.445,272.781L951.445,1163.394C938.638,1177.858 923.566,1179.022 905.636,1163.394L905.636,272.781Z" style="fill:rgb(74,53,34);stroke:black;stroke-width:24.06px;"/>
    </g>
    <path d="M483.696,783.533C560.878,782.748 618.168,827.862 618.168,827.862C618.168,827.862 598.646,899.858 585.19,935.036C564.475,989.19 541.083,1040.761 483.696,1040.761C426.308,1040.761 403.656,989.461 381.924,935.706C368.167,901.676 348.945,825.351 348.945,825.351C348.945,825.351 423.013,784.149 483.696,783.533Z" style="fill:rgb(45,45,45);stroke:black;stroke-width:25px;"/>
    <g transform="matrix(1,0,0,1,-77.676261,-209.41442)">
        <circle cx="852.835" cy="830.651" r="65.973" style="fill:rgb(209,190,173);stroke:black;stroke-width:25px;"/>
    </g>
    <g transform="matrix(1,0,0,1,-634.425641,0)">
        <circle cx="852.835" cy="830.651" r="65.973" style="fill:rgb(209,190,173);stroke:black;stroke-width:25px;"/>
    </g>
    <g transform="matrix(1,0,0,0.217778,-17.58754,357.430052)">
        <ellipse cx="507.732" cy="485.855" rx="43.764" ry="23.559" style="fill:none;stroke:black;stroke-width:34.55px;"/>
    </g>
</svg>
